<?xml version="1.0" standalone="no"?>
<!DOCTYPE svg PUBLIC "-//W3C//DTD SVG 20010904//EN"
 "http://www.w3.org/TR/2001/REC-SVG-20010904/DTD/svg10.dtd">
<svg version="1.0" xmlns="http://www.w3.org/2000/svg"
 width="709.000000pt" height="709.000000pt" viewBox="0 0 709.000000 709.000000"
 preserveAspectRatio="xMidYMid meet">
<metadata>
Created by potrace 1.11, written by Peter Selinger 2001-2013
</metadata>
<g transform="translate(0.000000,709.000000) scale(0.100000,-0.100000)"
fill="#000000" stroke="none">
<path d="M4180 7014 c-222 -46 -286 -67 -448 -145 -75 -36 -282 -168 -316
-201 -7 -7 -35 -31 -61 -53 -69 -57 -205 -199 -265 -275 -27 -36 -56 -72 -63
-80 -34 -38 -131 -210 -205 -361 -44 -92 -85 -169 -90 -173 -5 -3 -117 48
-249 113 -241 118 -339 156 -422 166 -78 9 -138 -23 -175 -95 -20 -39 -64
-180 -70 -224 -9 -80 30 -115 159 -140 114 -22 173 -40 225 -66 180 -92 305
-244 400 -490 18 -47 33 -89 34 -95 1 -5 10 -35 19 -65 9 -30 18 -66 20 -80 2
-14 6 -32 9 -40 11 -29 41 -205 45 -267 5 -56 3 -62 -19 -77 -31 -21 -160 -14
-271 15 -45 11 -86 22 -92 23 -137 31 -422 182 -526 278 -43 41 -107 120 -140
173 -31 51 -89 176 -89 193 0 7 -4 20 -9 30 -36 71 -60 242 -54 391 3 105 9
176 13 176 2 0 7 19 15 59 3 15 12 56 20 90 12 55 19 112 16 142 -1 10 -46 33
-166 85 -100 43 -218 90 -220 87 -2 -3 -43 -142 -50 -168 -2 -8 -16 -55 -30
-105 -14 -49 -27 -101 -29 -115 -3 -14 -7 -36 -10 -50 -20 -80 -28 -404 -14
-500 19 -126 32 -179 70 -295 29 -88 104 -247 120 -253 4 -2 8 -8 8 -13 0 -11
42 -72 53 -77 4 -2 7 -10 7 -17 0 -7 4 -15 8 -17 5 -1 23 -24 40 -50 l32 -47
-143 3 c-78 2 -142 4 -142 5 0 2 -11 4 -25 7 -14 2 -36 7 -50 11 -14 3 -27 7
-30 8 -47 11 -156 54 -221 86 -171 86 -266 167 -385 327 -9 13 -30 5 -135 -53
-68 -38 -137 -78 -154 -89 -16 -12 -30 -19 -30 -17 0 3 -21 -8 -48 -23 l-47
-28 36 -52 c21 -28 47 -64 58 -80 136 -193 401 -376 711 -492 65 -24 158 -41
270 -49 47 -4 377 -4 970 -2 251 1 407 -7 448 -22 12 -5 25 -9 30 -9 18 -1 73
-15 87 -22 8 -5 62 -31 120 -58 104 -49 276 -147 295 -167 6 -6 29 -23 51 -39
23 -15 78 -65 123 -111 80 -83 86 -96 60 -130 -4 -5 -8 -13 -8 -17 -1 -5 -13
-34 -27 -65 -84 -188 -121 -283 -161 -408 -58 -185 -61 -194 -68 -235 -3 -19
-11 -55 -16 -80 -6 -25 -13 -58 -15 -75 -2 -16 -7 -43 -10 -60 -12 -72 -19
-191 -18 -330 1 -166 4 -193 39 -340 52 -217 118 -424 181 -563 13 -29 24 -55
24 -58 0 -4 17 -29 37 -57 40 -55 51 -116 30 -166 -15 -34 -88 -151 -107 -172
-8 -9 -25 -29 -37 -45 -12 -16 -38 -47 -58 -69 -67 -75 -166 -184 -193 -213
-15 -16 -70 -75 -122 -132 -52 -56 -123 -132 -157 -169 -35 -36 -63 -69 -63
-73 0 -4 48 -5 108 -3 59 3 168 8 242 11 74 3 164 7 200 9 36 2 79 4 96 4 25
1 39 11 75 57 24 30 53 66 64 78 25 29 28 33 146 181 114 144 249 330 249 345
0 5 4 10 9 10 5 0 11 8 15 18 3 9 26 49 51 87 25 39 59 97 76 130 17 33 38 68
47 78 8 9 13 17 9 17 -3 0 14 39 37 88 24 48 53 114 66 147 12 33 27 68 32 79
5 10 12 30 14 44 3 14 8 30 12 36 3 6 7 16 8 21 1 6 14 53 29 105 14 52 28
106 31 120 2 14 9 48 14 75 10 49 13 72 27 190 13 110 5 466 -11 494 -2 3 -7
34 -10 68 -4 35 -9 68 -11 75 -2 7 -7 24 -9 38 -15 83 -26 128 -35 153 -6 15
-9 27 -6 27 6 0 -50 161 -69 198 -21 40 -53 71 -73 68 -44 -7 -115 -132 -139
-246 -4 -19 -9 -39 -10 -45 -11 -43 -36 -167 -40 -195 -2 -19 -6 -48 -8 -65
-12 -84 -17 -126 -22 -190 -3 -38 -7 -86 -9 -105 -1 -19 -6 -82 -10 -140 -4
-58 -9 -107 -10 -110 -2 -3 -6 -34 -10 -70 -3 -36 -10 -90 -15 -120 -5 -30
-12 -71 -15 -90 -12 -71 -35 -148 -66 -215 -29 -66 -31 -67 -43 -44 -7 14 -15
33 -18 44 -3 11 -18 52 -33 90 -14 39 -28 77 -30 86 -2 9 -8 34 -14 55 -14 50
-40 172 -48 227 -9 63 -9 344 0 409 9 66 29 158 52 243 10 33 18 67 20 75 15
72 139 356 198 455 19 32 131 200 137 205 3 3 23 27 45 55 87 108 292 295 324
295 6 0 11 4 11 9 0 12 148 93 232 128 35 14 72 29 83 34 26 11 129 36 180 43
111 17 268 22 950 31 220 3 427 7 460 9 73 5 183 16 210 23 11 2 30 6 43 9 97
20 239 109 442 280 123 103 279 259 292 293 9 24 5 30 -41 71 -27 25 -108 82
-179 126 l-129 82 -84 -80 c-166 -158 -249 -218 -395 -288 -132 -64 -239 -90
-387 -96 l-127 -4 119 237 c116 230 161 339 178 433 10 60 10 457 -1 545 -5
39 -15 106 -23 150 -8 44 -15 88 -17 97 -1 10 -5 21 -9 24 -4 4 -7 17 -7 29 0
11 -4 25 -9 30 -5 6 -18 39 -30 75 -30 93 -29 91 -86 64 -27 -14 -51 -25 -52
-25 -2 0 -29 -11 -60 -25 -240 -105 -256 -124 -213 -250 11 -32 23 -70 25 -84
19 -99 25 -321 12 -430 -13 -104 -15 -121 -33 -192 -1 -5 -2 -9 -3 -10 -2 -2
-4 -14 -7 -27 -9 -49 -58 -159 -100 -221 -60 -91 -166 -198 -245 -245 -53 -32
-125 -69 -131 -67 -5 1 -8 -2 -8 -8 0 -5 -8 -10 -18 -10 -10 0 -22 -4 -27 -9
-6 -5 -48 -21 -94 -35 -135 -42 -242 -65 -436 -91 -22 -3 -51 -7 -65 -9 -14
-2 -28 -2 -31 0 -3 1 3 43 13 91 10 48 20 99 23 113 2 14 12 54 20 90 9 36 18
72 20 80 3 14 23 86 61 215 8 28 17 57 19 65 27 96 96 244 133 285 38 43 137
117 207 156 33 18 63 38 67 43 4 6 8 8 8 4 0 -4 26 5 58 19 80 36 108 43 182
48 109 8 128 14 136 38 5 12 7 27 5 32 -2 6 -5 21 -7 35 -14 73 -77 261 -96
285 -5 6 -16 19 -26 31 -15 18 -57 40 -72 37 -3 0 -24 -4 -48 -7 -153 -20
-362 -109 -527 -224 -44 -30 -82 -58 -85 -61 -16 -19 -70 -49 -74 -42 -3 4
-41 94 -85 198 -72 172 -122 277 -162 340 -16 26 -38 25 -107 -8 -58 -27 -302
-188 -302 -199 0 -8 43 -105 107 -240 76 -159 125 -296 127 -357 1 -13 3 -23
6 -23 10 0 15 -114 14 -380 -1 -255 -5 -336 -20 -400 -3 -14 -8 -36 -11 -49
-7 -41 -42 -143 -69 -199 -13 -29 -24 -57 -24 -61 0 -5 -3 -11 -7 -13 -5 -1
-32 -52 -62 -112 -94 -189 -199 -332 -240 -324 -16 3 -115 129 -134 171 -6 15
-15 27 -19 27 -5 0 -8 6 -8 13 0 6 -10 28 -22 47 -12 19 -22 37 -23 40 -1 3
-22 46 -47 95 -69 136 -124 292 -144 405 -6 34 -13 70 -20 100 -10 42 -12 381
-3 445 4 33 11 87 14 120 4 33 9 63 12 68 2 4 7 20 9 35 3 15 10 45 16 67 5
22 12 48 14 58 7 40 83 242 105 280 5 10 24 45 42 78 66 125 80 143 192 254
185 184 417 330 612 386 36 10 72 24 80 31 17 13 34 52 39 83 2 20 7 323 5
358 -1 20 -4 20 -91 1z"/>
<path d="M2833 6913 c-13 -2 -23 -9 -23 -14 0 -5 -8 -9 -18 -9 -10 0 -24 -6
-30 -12 -7 -7 -16 -13 -20 -13 -11 -1 -91 -46 -157 -90 -43 -28 -128 -106
-165 -151 -143 -176 -173 -360 -74 -459 56 -56 127 -64 206 -24 49 25 153 127
199 194 19 27 40 56 47 63 6 7 12 18 12 24 0 5 8 22 18 36 19 29 55 135 72
216 12 57 15 159 5 199 -6 23 -35 51 -47 46 -2 -1 -13 -4 -25 -6z"/>
<path d="M4704 6799 c-37 -17 -118 -95 -179 -169 -38 -47 -108 -168 -120 -210
-38 -129 -38 -324 -2 -369 21 -26 87 -49 125 -44 59 7 138 50 180 98 39 44 87
162 96 237 25 196 26 260 3 398 -7 41 -29 80 -46 80 -9 0 -35 -9 -57 -21z"/>
<path d="M3519 5591 c-42 -33 -103 -171 -135 -306 -4 -16 -8 -34 -10 -40 -2
-9 -5 -29 -20 -122 -7 -46 -6 -278 1 -313 2 -13 7 -42 10 -65 19 -133 80 -277
148 -346 32 -34 43 -40 64 -34 42 10 85 75 130 193 13 35 26 80 29 100 3 20 7
44 10 52 4 12 14 156 16 235 1 20 -12 200 -16 225 -2 14 -7 48 -11 75 -18 130
-79 299 -123 338 -30 27 -65 30 -93 8z"/>
<path d="M6554 5570 c-119 -61 -154 -89 -222 -182 -98 -133 -150 -316 -146
-514 1 -82 18 -140 44 -154 29 -16 107 32 200 122 129 126 168 181 196 278 9
31 14 479 5 484 -3 1 -38 -14 -77 -34z"/>
<path d="M499 5598 c0 -2 -1 -82 -1 -178 -1 -342 10 -376 167 -536 88 -89 153
-143 202 -168 32 -16 33 -16 49 9 23 36 28 71 28 215 1 150 -16 223 -81 357
-60 125 -139 204 -258 262 -76 36 -104 47 -106 39z"/>
<path d="M1873 5299 c-66 -19 -82 -84 -50 -204 7 -25 53 -105 93 -161 68 -96
188 -198 281 -239 21 -9 47 -21 58 -26 23 -10 62 -18 119 -24 78 -9 93 39 56
173 -48 172 -171 334 -325 428 -90 54 -168 72 -232 53z"/>
<path d="M5119 5289 c-71 -25 -145 -76 -218 -149 -56 -55 -151 -183 -141 -186
3 -1 -2 -10 -11 -20 -24 -27 -67 -160 -72 -222 -8 -90 29 -97 196 -41 49 16
103 39 118 50 16 11 29 18 29 14 0 -10 71 46 121 95 56 54 99 122 139 220 45
109 55 170 34 211 -23 46 -110 58 -195 28z"/>
<path d="M3984 697 c-12 -13 -23 -28 -25 -33 -5 -12 -82 -128 -90 -134 -3 -3
-22 -33 -43 -68 -50 -84 -57 -130 -24 -180 59 -88 163 -175 224 -186 16 -3 43
-8 59 -11 30 -7 547 -14 542 -9 -6 8 -329 344 -467 486 l-155 160 -21 -25z"/>
</g>
</svg>
